<?xml version="1.0" encoding="utf-8"?>
<!-- Generator: Adobe Illustrator 14.0.0, SVG Export Plug-In . SVG Version: 6.00 Build 43363)  -->
<!DOCTYPE svg PUBLIC "-//W3C//DTD SVG 1.1//EN" "http://www.w3.org/Graphics/SVG/1.1/DTD/svg11.dtd">
<svg version="1.1" id="Layer_1" xmlns="http://www.w3.org/2000/svg" xmlns:xlink="http://www.w3.org/1999/xlink" x="0px" y="0px"
	 width="55.333px" height="73.333px" viewBox="0 0 55.333 73.333" enable-background="new 0 0 55.333 73.333" xml:space="preserve">
<path fill="#6D6E6E" d="M9.294,64.363c0-0.973,0.107-2.061,0.268-3.207c0.107-1.202,0.269-2.517,0.269-4.003
	c0.053-4.35-1.612-6.011-4.621-6.64v-0.114c3.009-0.686,4.673-2.347,4.621-6.639c0-1.487-0.162-2.803-0.269-3.948
	c-0.161-1.201-0.268-2.232-0.268-3.262c0-2.517,0.859-4.005,3.275-4.062h0.969v-4.865h-1.881c-4.997,0-8.166,2.347-8.166,7.725
	c0,1.431,0.16,2.975,0.268,4.521c0.162,1.545,0.323,3.091,0.323,4.462c0,1.718-0.377,3.778-4.083,3.95v4.35
	c3.652,0.172,4.029,2.288,4.083,3.89c0,1.433-0.162,2.92-0.323,4.466c-0.108,1.544-0.268,3.09-0.268,4.521
	c0,5.721,3.33,7.782,8.111,7.782h1.935v-4.808h-0.969C10.099,68.426,9.294,66.881,9.294,64.363z"/>
<path fill="#6D6E6E" d="M51.304,69.405c-0.488-1.565-1.299-2.35-2.099-2.732c0.031-0.363,0.051-0.739,0.051-1.137
	c0-1.435-0.16-2.982-0.269-4.53c-0.161-1.548-0.322-3.039-0.322-4.473c0.054-1.604,0.431-3.725,4.091-3.898v-4.357
	c-3.713-0.172-4.091-2.236-4.091-3.956c0-1.375,0.161-2.924,0.322-4.472c0.108-1.548,0.269-3.095,0.269-4.529
	c0-5.389-3.176-7.739-8.181-7.739h-1.884v4.874h0.97c2.422,0.056,3.282,1.548,3.282,4.069c0,1.033-0.107,2.065-0.27,3.269
	c-0.106,1.147-0.269,2.466-0.269,3.956c-0.052,4.3,1.614,5.963,4.63,6.65v0.114c-3.016,0.63-4.682,2.295-4.63,6.65
	c0,1.49,0.162,2.808,0.269,4.014c0.162,1.146,0.27,2.237,0.27,3.211c0,2.521-0.808,4.069-3.282,4.128h-0.97v4.816h1.939
	c1.723,0,3.255-0.273,4.514-0.883c0.365,0.18,0.768,0.355,1.254,0.503c1.939,0.591,8.566,0.314,8.566,0.314
	S52.242,72.435,51.304,69.405z"/>
<polygon fill="#03B8D6" points="13.538,65.855 20.778,65.855 20.778,41.844 13.538,35.163 "/>
<rect x="22.744" y="41.737" fill="#03B8D6" width="7.243" height="20.273"/>
<polygon fill="#03B8D6" points="39.191,35.163 31.951,41.844 31.951,65.855 39.191,65.855 "/>
</svg>
