<?xml version="1.0" encoding="utf-8"?>
<!-- Generator: Adobe Illustrator 14.0.0, SVG Export Plug-In . SVG Version: 6.00 Build 43363)  -->
<!DOCTYPE svg PUBLIC "-//W3C//DTD SVG 1.1//EN" "http://www.w3.org/Graphics/SVG/1.1/DTD/svg11.dtd">
<svg version="1.1" id="Layer_1" xmlns="http://www.w3.org/2000/svg" xmlns:xlink="http://www.w3.org/1999/xlink" x="0px" y="0px"
	 width="55.333px" height="74.583px" viewBox="0 0 55.333 74.583" enable-background="new 0 0 55.333 74.583" xml:space="preserve">
<rect x="15.5" y="32" fill="#03B8D6" width="24.375" height="28"/>
<path fill="none" d="M15.19,26.261c-4.188,0-6.846,2.02-6.846,6.65c0,1.232,0.135,2.562,0.225,3.892
	c0.135,1.33,0.271,2.661,0.271,3.842c0,1.479-0.316,3.252-3.423,3.4v3.745c3.062,0.148,3.378,1.97,3.423,3.349
	c0,1.231-0.135,2.513-0.271,3.843c-0.09,1.33-0.225,2.66-0.225,3.893c0,4.925,2.792,6.699,6.8,6.699h1.622v-4.139h-0.812
	c-2.071-0.049-2.747-1.379-2.747-3.547c0-0.836,0.09-1.773,0.225-2.759c0.09-1.035,0.225-2.167,0.225-3.448
	c0.044-3.743-1.351-5.173-3.874-5.715v-0.098c2.522-0.591,3.918-2.02,3.874-5.715c0-1.28-0.135-2.413-0.225-3.398
	c-0.135-1.034-0.225-1.921-0.225-2.808c0-2.167,0.72-3.448,2.747-3.497h0.812V30.42v-4.159H15.19z"/>
<rect x="24.484" y="38.41" fill="none" width="6.071" height="17.453"/>
<polygon fill="none" points="16.767,59.172 22.836,59.172 22.836,38.501 16.767,32.751 "/>
<path fill="none" d="M48.427,62.229c-0.408-1.349-1.088-2.024-1.759-2.354c0.027-0.312,0.043-0.637,0.043-0.979
	c0-1.234-0.135-2.566-0.226-3.898c-0.135-1.334-0.271-2.617-0.271-3.851c0.045-1.382,0.361-3.208,3.43-3.355V44.04
	c-3.112-0.147-3.43-1.924-3.43-3.405c0-1.184,0.136-2.517,0.271-3.849c0.091-1.333,0.226-2.665,0.226-3.899
	c0-4.639-2.662-6.662-6.858-6.662h-1.579v0.036h0.394v4.159h0.42c2.03,0.048,2.751,1.333,2.751,3.503
	c0,0.889-0.09,1.777-0.226,2.813c-0.09,0.987-0.226,2.123-0.226,3.405c-0.044,3.702,1.354,5.133,3.881,5.726v0.098
	c-2.527,0.543-3.925,1.975-3.881,5.725c0,1.284,0.136,2.419,0.226,3.456c0.136,0.987,0.226,1.925,0.226,2.765
	c0,2.17-0.677,3.503-2.751,3.553h-0.813v4.146h1.625c1.445,0,2.729-0.235,3.785-0.76c0.306,0.155,0.644,0.307,1.05,0.434
	c1.627,0.508,7.183,0.271,7.183,0.271S49.214,64.836,48.427,62.229z"/>
<polygon fill="none" points="38.273,32.751 32.203,38.501 32.203,59.172 38.273,59.172 "/>
<polygon fill="none" points="38.273,32.751 32.203,38.501 32.203,59.172 38.273,59.172 "/>
<path fill="none" d="M48.427,62.229c-0.408-1.349-1.088-2.024-1.759-2.354c0.027-0.312,0.043-0.637,0.043-0.979
	c0-1.234-0.135-2.566-0.226-3.898c-0.135-1.334-0.271-2.617-0.271-3.851c0.045-1.382,0.361-3.208,3.43-3.355V44.04
	c-3.112-0.147-3.43-1.924-3.43-3.405c0-1.184,0.136-2.517,0.271-3.849c0.091-1.333,0.226-2.665,0.226-3.899
	c0-4.639-2.662-6.662-6.858-6.662h-1.579v0.036H16.767H15.19c-4.188,0-6.846,2.02-6.846,6.65c0,1.232,0.135,2.562,0.225,3.892
	c0.135,1.33,0.271,2.661,0.271,3.842c0,1.479-0.316,3.252-3.423,3.4v3.745c3.062,0.148,3.378,1.97,3.423,3.349
	c0,1.231-0.135,2.513-0.271,3.843c-0.09,1.33-0.225,2.66-0.225,3.893c0,4.925,2.792,6.699,6.8,6.699h1.622v-4.139h-0.812
	c-2.071-0.049-2.747-1.379-2.747-3.547c0-0.836,0.09-1.773,0.225-2.759c0.09-1.035,0.225-2.167,0.225-3.448
	c0.044-3.743-1.351-5.173-3.874-5.715v-0.098c2.522-0.591,3.918-2.02,3.874-5.715c0-1.28-0.135-2.413-0.225-3.398
	c-0.135-1.034-0.225-1.921-0.225-2.808c0-2.167,0.72-3.448,2.747-3.497h0.812V30.42h21.507h0.394h0.42
	c2.03,0.048,2.751,1.333,2.751,3.503c0,0.889-0.09,1.777-0.226,2.813c-0.09,0.987-0.226,2.123-0.226,3.405
	c-0.044,3.702,1.354,5.133,3.881,5.726v0.098c-2.527,0.543-3.925,1.975-3.881,5.725c0,1.284,0.136,2.419,0.226,3.456
	c0.136,0.987,0.226,1.925,0.226,2.765c0,2.17-0.677,3.503-2.751,3.553h-0.813v4.146h1.625c1.445,0,2.729-0.235,3.785-0.76
	c0.306,0.155,0.644,0.307,1.05,0.434c1.627,0.508,7.183,0.271,7.183,0.271S49.214,64.836,48.427,62.229z"/>
<rect x="24.484" y="38.41" fill="none" width="6.071" height="17.453"/>
<polygon fill="none" points="16.767,59.172 22.836,59.172 22.836,38.501 16.767,32.751 "/>
<path fill="#6D6E6E" d="M38.273,61.463h0.813c2.074-0.05,2.751-1.383,2.751-3.553c0-0.84-0.09-1.777-0.226-2.765
	c-0.09-1.037-0.226-2.172-0.226-3.456c-0.044-3.75,1.354-5.181,3.881-5.725v-0.098c-2.527-0.592-3.925-2.023-3.881-5.726
	c0-1.282,0.136-2.418,0.226-3.405c0.136-1.036,0.226-1.925,0.226-2.813c0-2.17-0.721-3.455-2.751-3.503h-0.42h-0.394H16.767v0.029
	h-0.812c-2.026,0.048-2.747,1.33-2.747,3.497c0,0.887,0.09,1.774,0.225,2.808c0.09,0.985,0.225,2.118,0.225,3.398
	c0.044,3.695-1.351,5.125-3.874,5.715v0.098c2.522,0.542,3.918,1.972,3.874,5.715c0,1.281-0.135,2.413-0.225,3.448
	c-0.135,0.985-0.225,1.923-0.225,2.759c0,2.168,0.675,3.498,2.747,3.547h0.812h21.507V61.463z M22.836,59.172h-6.069V32.751
	l6.069,5.75V59.172z M30.556,55.863h-6.071V38.41h6.071V55.863z M32.203,59.172v-20.67l6.07-5.75v26.421H32.203z"/>
<path fill="#6D6E6E" d="M43.333,19.25H12c-6.627,0-12,5.373-12,12v31.333c0,6.628,5.373,12,12,12h31.333c6.627,0,12-5.372,12-12
	V31.25C55.333,24.623,49.96,19.25,43.333,19.25z M44.733,65.283c-0.406-0.127-0.744-0.278-1.05-0.434
	c-1.057,0.524-2.34,0.76-3.785,0.76h-1.625H16.767v-0.037h-1.622c-4.008,0-6.8-1.774-6.8-6.699c0-1.232,0.135-2.563,0.225-3.893
	c0.135-1.33,0.271-2.611,0.271-3.843c-0.045-1.379-0.361-3.201-3.423-3.349v-3.745c3.107-0.147,3.423-1.921,3.423-3.4
	c0-1.181-0.135-2.512-0.271-3.842c-0.09-1.33-0.225-2.66-0.225-3.892c0-4.63,2.657-6.65,6.846-6.65h1.577h21.507v-0.036h1.579
	c4.196,0,6.858,2.023,6.858,6.662c0,1.234-0.135,2.566-0.226,3.899c-0.135,1.333-0.271,2.666-0.271,3.849
	c0,1.481,0.317,3.258,3.43,3.405v3.752c-3.068,0.147-3.385,1.974-3.43,3.355c0,1.233,0.136,2.517,0.271,3.851
	c0.091,1.332,0.226,2.664,0.226,3.898c0,0.342-0.016,0.667-0.043,0.979c0.671,0.33,1.351,1.006,1.759,2.354
	c0.787,2.606,3.489,3.324,3.489,3.324S46.36,65.791,44.733,65.283z"/>
</svg>
